<?xml version="1.0" standalone="no"?>
<!DOCTYPE svg PUBLIC "-//W3C//DTD SVG 20010904//EN"
 "http://www.w3.org/TR/2001/REC-SVG-20010904/DTD/svg10.dtd">
<svg version="1.0" xmlns="http://www.w3.org/2000/svg"
 width="348.000000pt" height="242.000000pt" viewBox="0 0 348.000000 242.000000"
 preserveAspectRatio="xMidYMid meet">

<g transform="translate(0.000000,242.000000) scale(0.100000,-0.100000)"
fill="#000000" stroke="none">
<path d="M1962 1488 l3 -803 244 -92 c134 -51 248 -96 254 -102 15 -15 0 -41
-23 -41 -11 0 -122 38 -246 85 -124 47 -227 85 -230 85 -2 0 -4 -110 -4 -245
l0 -245 726 0 726 0 34 34 34 34 0 1012 0 1012 -34 34 -34 34 -726 0 -726 0 2
-802z m270 490 c38 -31 21 -84 -30 -90 -19 -2 -28 -9 -30 -25 -2 -13 -10 -23
-18 -23 -11 0 -14 17 -14 75 l0 75 38 0 c21 0 45 -6 54 -12z m138 -43 c33 -96
33 -95 15 -95 -8 0 -18 7 -21 15 -4 9 -19 15 -35 15 -19 0 -29 -5 -29 -15 0
-8 -9 -15 -19 -15 -19 0 -19 3 6 76 21 64 28 75 46 72 14 -2 25 -17 37 -53z
m154 39 c24 -23 20 -26 -24 -19 -51 9 -52 -7 -2 -32 39 -19 51 -45 32 -68 -16
-20 -75 -19 -94 1 -32 32 -13 46 27 19 14 -9 27 -11 37 -5 18 11 8 22 -33 36
-56 19 -45 84 14 84 15 0 35 -7 43 -16z m137 6 c29 -16 23 -30 -13 -27 -46 3
-50 -14 -8 -28 39 -13 53 -52 26 -74 -20 -17 -77 -10 -90 11 -15 25 -2 32 26
14 15 -10 28 -12 38 -6 17 11 12 16 -32 38 -38 20 -48 50 -22 69 21 16 48 17
75 3z m153 -12 c9 -12 16 -28 16 -35 0 -20 -30 -43 -56 -43 -19 0 -24 -5 -24
-25 0 -18 -5 -25 -20 -25 -18 0 -20 7 -20 68 0 38 3 72 7 75 3 4 23 7 44 7 28
0 42 -6 53 -22z m154 6 c17 -11 22 -25 22 -56 0 -51 -22 -78 -65 -78 -41 0
-69 30 -69 75 0 64 60 96 112 59z m156 0 c19 -18 21 -45 4 -62 -9 -9 -9 -18 0
-37 15 -33 15 -35 -2 -35 -7 0 -21 11 -30 25 -9 14 -21 25 -26 25 -6 0 -10
-11 -10 -25 0 -16 -6 -25 -15 -25 -12 0 -15 15 -15 75 l0 75 39 0 c23 0 46 -7
55 -16z m166 1 c0 -9 -9 -15 -25 -15 -24 0 -25 -3 -25 -60 0 -47 -3 -60 -15
-60 -12 0 -15 13 -15 60 0 53 -2 60 -20 60 -11 0 -20 7 -20 15 0 12 13 15 60
15 47 0 60 -3 60 -15z m-377 -338 c153 -72 239 -188 267 -361 29 -183 -81
-389 -253 -474 -233 -115 -508 -22 -621 210 -115 234 -23 505 210 622 75 38
118 46 226 42 86 -3 104 -7 171 -39z m27 -1092 l0 -55 -67 0 c-65 0 -69 2 -85
30 -30 53 -106 53 -136 0 -16 -28 -20 -30 -84 -30 l-68 0 0 55 0 55 220 0 220
0 0 -55z m-178 -32 c24 -22 23 -58 -4 -83 -26 -24 -64 -20 -85 7 -43 56 37
124 89 76z m-110 -83 c30 -53 106 -53 136 0 16 28 20 30 85 30 l67 0 0 -60 0
-60 -220 0 -220 0 0 60 0 60 68 0 c64 0 68 -2 84 -30z"/>
<path d="M2172 1938 c2 -15 10 -23 23 -23 13 0 21 8 23 23 3 18 -1 22 -23 22
-22 0 -26 -4 -23 -22z"/>
<path d="M2317 1920 c-4 -15 0 -20 13 -20 13 0 17 5 13 20 -3 11 -9 20 -13 20
-4 0 -10 -9 -13 -20z"/>
<path d="M2750 1934 c0 -33 33 -30 38 4 3 17 -2 22 -17 22 -16 0 -21 -6 -21
-26z"/>
<path d="M2894 1946 c-3 -8 -4 -27 -2 -43 3 -24 7 -28 33 -28 32 0 41 18 31
61 -5 17 -13 24 -32 24 -13 0 -27 -6 -30 -14z"/>
<path d="M3060 1940 c0 -16 5 -21 23 -18 12 2 22 10 22 18 0 8 -10 16 -22 18
-18 3 -23 -2 -23 -18z"/>
<path d="M2649 1598 c-32 -32 -71 -107 -84 -159 -6 -24 -3 -27 32 -32 21 -4
50 -7 66 -7 l27 0 0 115 c0 63 -2 115 -4 115 -3 0 -19 -15 -37 -32z"/>
<path d="M2750 1512 l0 -112 33 0 c49 0 77 11 77 29 0 26 -65 154 -89 175
l-21 19 0 -111z"/>
<path d="M2866 1555 c18 -36 36 -81 40 -100 7 -39 6 -39 92 -8 23 9 42 22 42
29 0 26 -108 105 -184 134 -23 8 -23 7 10 -55z"/>
<path d="M2530 1585 c-55 -28 -130 -92 -130 -109 0 -12 72 -46 97 -46 6 0 19
21 27 48 9 26 27 66 41 90 13 23 21 42 17 42 -4 -1 -27 -12 -52 -25z"/>
<path d="M2339 1376 c-12 -28 -24 -70 -27 -93 l-5 -43 86 0 c47 0 88 3 91 8 2
4 6 34 7 66 l3 60 -66 26 -67 27 -22 -51z"/>
<path d="M3025 1404 c-27 -12 -58 -23 -68 -23 -25 -1 -30 -23 -22 -86 l6 -55
96 0 96 0 -5 43 c-3 24 -16 66 -29 94 l-24 50 -50 -23z"/>
<path d="M2548 1354 c-5 -4 -8 -31 -8 -61 l0 -53 75 0 75 0 0 55 0 55 -32 0
c-18 0 -49 3 -68 6 -19 3 -38 2 -42 -2z"/>
<path d="M2798 1353 l-48 -4 0 -55 0 -54 71 0 72 0 -7 31 c-3 17 -6 44 -6 60
0 22 -4 29 -17 27 -10 -1 -39 -3 -65 -5z"/>
<path d="M2313 1145 c4 -25 16 -68 28 -94 l21 -49 51 23 c29 12 60 25 71 29
11 4 16 12 12 22 -3 9 -6 38 -6 65 l0 49 -91 0 -92 0 6 -45z"/>
<path d="M2540 1136 c0 -30 3 -57 8 -59 4 -3 37 -3 75 0 l67 6 0 53 0 54 -75
0 -75 0 0 -54z"/>
<path d="M2750 1136 l0 -54 63 -4 c34 -3 63 -5 63 -4 1 1 4 27 7 59 l6 57 -70
0 -69 0 0 -54z"/>
<path d="M2936 1153 c-14 -85 -13 -87 66 -117 69 -27 72 -28 85 -10 17 23 43
109 43 141 0 22 -2 23 -94 23 l-93 0 -7 -37z"/>
<path d="M2582 1023 c-27 -5 -26 -19 7 -96 19 -45 76 -117 92 -117 5 0 9 50 9
110 l0 110 -42 -1 c-24 -1 -54 -4 -66 -6z"/>
<path d="M2750 923 l0 -106 26 24 c28 25 84 133 84 160 0 21 -20 29 -71 29
l-39 0 0 -107z"/>
<path d="M2452 988 c-28 -11 -52 -23 -52 -27 0 -26 162 -142 177 -128 2 3 -3
17 -13 32 -9 14 -26 52 -38 84 l-21 59 -53 -20z"/>
<path d="M2901 968 c-7 -24 -25 -67 -41 -95 -15 -29 -24 -53 -19 -53 38 0 199
114 199 141 0 7 -102 49 -119 49 -4 0 -13 -19 -20 -42z"/>
<path d="M350 1400 l0 -150 178 0 177 1 30 61 c24 50 40 68 79 93 42 25 59 30
116 30 57 0 74 -5 116 -30 39 -25 55 -43 79 -93 l30 -61 178 -1 177 0 0 150 0
150 -580 0 -580 0 0 -150z"/>
<path d="M885 1365 c-109 -38 -143 -169 -65 -250 60 -62 154 -64 215 -5 77 74
59 197 -35 245 -43 21 -74 24 -115 10z"/>
<path d="M350 1040 l0 -150 580 0 580 0 0 150 0 150 -177 0 -178 0 -30 -63
c-24 -49 -40 -68 -78 -91 -125 -77 -281 -20 -327 120 l-12 34 -179 0 -179 0 0
-150z"/>
</g>
</svg>
